<svg width="44" height="71" viewBox="0 0 44 71" fill="none" xmlns="http://www.w3.org/2000/svg">
<g clip-path="url(#clip0_349_2)">
<path d="M18.1554 20.3056L20.655 23.0216L15.6158 28.5449H4.31359L0 23.8324V4.30225L4.30961 -0.410271H15.6119L20.655 5.0913L18.1594 7.82465L14.1448 3.43473H5.77272L3.51626 5.90215V22.2325L5.77272 24.6825H14.1487L18.1554 20.3056Z" fill="white"/>
<path d="M39.1492 -0.410271H27.8549L23.5493 4.29789V28.5449H27.0616V18.6491H39.9505V28.5449H43.4668V4.30225L39.1452 -0.410271H39.1492ZM39.9226 14.8041H27.0656V5.89344L29.3141 3.43473H37.6861L39.9186 5.89344V14.8041H39.9226Z" fill="white"/>
<path d="M14.2073 66.6825H3.57884V64.2325V57.9855H16.703V54.123H3.57884V47.9022V45.4347H14.2073L18.2179 49.8247L20.7136 47.0913L15.6705 41.5897H0.0585938V46.3023V65.8324V70.5449H15.6744L20.7136 65.0216L18.214 62.3056L14.2073 66.6825Z" fill="white"/>
<path d="M15.8379 34H0.0585938V37.8624H15.8379V34Z" fill="white"/>
<path d="M27.1603 61.085H23.644V64.202L27.7782 70.5449H39.4194L43.5615 64.1933V60.4921L39.4194 54.1317H29.5922L27.1523 50.4219V49.1533L29.5842 45.4391H37.6094L40.0453 49.1446V51.0496H43.5615V47.9414L39.4233 41.5897H27.7703L23.644 47.9152V51.6774L27.7703 57.968H37.6214L40.0373 61.6953V62.9901L37.6214 66.6781H29.5762L27.1603 62.9814V61.085Z" fill="white"/>
</g>
<defs>
<clipPath id="clip0_349_2">
<rect width="44" height="71" fill="white"/>
</clipPath>
</defs>
</svg>
