<svg width="455" height="254" viewBox="0 0 455 254" fill="none" xmlns="http://www.w3.org/2000/svg">
<path d="M91.1873 133.141L103.742 145.916L78.4323 171.896H21.6655L0 149.73V57.8661L21.6455 35.6998H78.4122L103.742 61.5776L91.2074 74.4344L71.0436 53.7856H28.9941L17.6609 65.3915V142.205L28.9941 153.729H71.0637L91.1873 133.141Z" fill="white"/>
<path d="M196.632 35.6998H139.905L118.279 57.8455V171.896H135.92V125.349H200.657V171.896H218.317V57.8661L196.611 35.6998H196.632ZM200.516 107.263H135.94V65.3505L147.233 53.7856H189.283L200.496 65.3505V107.263H200.516Z" fill="white"/>
<path d="M307.421 153.729H254.038V142.205V112.82H319.955V94.6528H254.038V65.3915V53.7856H307.421L327.566 74.4344L340.1 61.5776L314.77 35.6998H236.358V57.8661V149.73V171.896H314.79L340.1 145.916L327.545 133.141L307.421 153.729Z" fill="white"/>
<path d="M315.611 0H236.358V18.1677H315.611V0Z" fill="white"/>
<path d="M372.478 127.4H354.817V142.061L375.582 171.896H434.051L454.855 142.02V124.611L434.051 94.6937H384.693L372.438 77.2436V71.2767L384.653 53.806H424.961L437.194 71.2355V80.1964H454.855V65.5761L434.07 35.6998H375.542L354.817 65.453V83.1492L375.542 112.739H425.02L437.154 130.271V136.361L425.02 153.708H384.612L372.478 136.32V127.4Z" fill="white"/>
<path d="M246.198 229.784C245.201 229.784 244.235 229.691 243.3 229.504C242.385 229.317 241.566 229.016 240.838 228.6C240.132 228.184 239.549 227.623 239.093 226.917C238.657 226.211 238.438 225.348 238.438 224.33C238.438 222.273 239.238 220.798 240.838 219.905C242.438 219.012 244.558 218.565 247.196 218.565C247.694 218.565 248.275 218.596 248.941 218.658C249.626 218.72 250.208 218.783 250.686 218.845V218.658C250.686 216.975 250.292 215.78 249.502 215.074C248.712 214.346 247.496 213.983 245.856 213.983C245.399 213.983 244.921 214.025 244.422 214.108C243.944 214.191 243.456 214.295 242.957 214.42C242.479 214.544 242.022 214.7 241.586 214.887C241.15 215.074 240.537 215.386 239.747 215.822L239.841 213.329C240.943 212.768 242.022 212.374 243.082 212.145C244.142 211.915 245.119 211.802 246.011 211.802C248.318 211.802 250.043 212.332 251.185 213.391C252.327 214.431 252.899 216.092 252.899 218.378V228.506C251.839 228.943 250.748 229.265 249.626 229.473C248.505 229.68 247.362 229.784 246.198 229.784ZM250.686 221.089C250.395 221.027 249.856 220.953 249.066 220.871C248.297 220.788 247.57 220.746 246.884 220.746C246.094 220.746 245.326 220.798 244.578 220.902C243.85 221.006 243.196 221.183 242.614 221.432C242.054 221.681 241.606 222.035 241.274 222.491C240.963 222.928 240.807 223.52 240.807 224.268C240.807 224.933 240.943 225.473 241.212 225.889C241.482 226.305 241.846 226.647 242.303 226.917C242.759 227.166 243.311 227.342 243.955 227.447C244.62 227.551 245.315 227.603 246.043 227.603C246.895 227.603 247.746 227.529 248.598 227.385C249.45 227.24 250.145 227.062 250.686 226.855V221.089ZM267.345 214.295H264.478C263.834 214.295 263.138 214.357 262.39 214.482C261.642 214.586 261.123 214.689 260.832 214.794V229.473H258.619V213.017C259.492 212.788 260.395 212.592 261.33 212.425C262.265 212.238 263.211 212.145 264.166 212.145H267.345V214.295ZM269.24 224.424C268.783 223.322 268.554 222.118 268.554 220.809C268.554 219.5 268.783 218.304 269.24 217.224C269.696 216.123 270.32 215.168 271.11 214.357C271.9 213.547 272.813 212.924 273.852 212.487C274.912 212.031 276.054 211.802 277.28 211.802C278.547 211.802 279.66 211.937 280.615 212.207C281.57 212.456 282.558 212.861 283.575 213.422L282.547 215.448C281.654 214.907 280.813 214.533 280.023 214.326C279.254 214.097 278.34 213.983 277.28 213.983C276.345 213.983 275.484 214.159 274.694 214.513C273.925 214.867 273.26 215.344 272.699 215.947C272.138 216.55 271.702 217.267 271.39 218.097C271.078 218.928 270.923 219.832 270.923 220.809C270.923 221.786 271.078 222.689 271.39 223.52C271.702 224.351 272.138 225.067 272.699 225.67C273.26 226.273 273.925 226.75 274.694 227.104C275.484 227.436 276.345 227.603 277.28 227.603C278.34 227.603 279.254 227.498 280.023 227.291C280.813 227.062 281.654 226.679 282.547 226.138L283.575 228.164C282.558 228.725 281.57 229.13 280.615 229.379C279.66 229.649 278.547 229.784 277.28 229.784C276.054 229.784 274.912 229.555 273.852 229.099C272.813 228.662 271.9 228.05 271.11 227.26C270.32 226.45 269.696 225.504 269.24 224.424ZM289.38 212.238C290.003 212.134 290.771 212.04 291.686 211.958C292.621 211.853 293.493 211.802 294.304 211.802C295.363 211.802 296.339 211.906 297.233 212.113C298.146 212.321 298.925 212.705 299.571 213.266C300.234 213.827 300.733 214.586 301.066 215.542C301.419 216.477 301.596 217.661 301.596 219.094V229.473H299.384V220.029C299.384 218.763 299.259 217.743 299.01 216.975C298.781 216.185 298.449 215.584 298.012 215.168C297.596 214.731 297.066 214.431 296.423 214.264C295.778 214.077 295.03 213.983 294.179 213.983C292.683 213.983 291.083 214.15 289.38 214.482V229.473H287.167V203.387H289.38V212.238ZM307.344 212.145H309.557V229.473H307.344V212.145ZM307.282 205.444C307.614 205.112 308.008 204.945 308.466 204.945C308.923 204.945 309.317 205.112 309.651 205.444C309.983 205.776 310.149 206.172 310.149 206.628C310.149 207.085 309.983 207.481 309.651 207.812C309.317 208.144 308.923 208.311 308.466 208.311C308.008 208.311 307.614 208.144 307.282 207.812C306.949 207.481 306.784 207.085 306.784 206.628C306.784 206.172 306.949 205.776 307.282 205.444ZM313.099 212.145H316.776V205.88H318.989V212.145H326.157V214.295H318.989V222.741C318.989 223.656 319.051 224.404 319.176 224.985C319.321 225.566 319.539 226.024 319.83 226.356C320.12 226.688 320.516 226.937 321.015 227.104C321.513 227.249 322.137 227.322 322.885 227.322H326.375V229.473H323.103C322.188 229.473 321.347 229.368 320.578 229.161C319.83 228.974 319.165 228.651 318.584 228.195C318.001 227.738 317.555 227.135 317.244 226.387C316.932 225.639 316.776 224.715 316.776 223.613V214.295H313.099V212.145ZM337.024 227.603C338.333 227.603 339.455 227.458 340.39 227.166C341.345 226.875 342.291 226.45 343.226 225.889L344.285 227.914C343.204 228.538 342.113 229.005 341.013 229.317C339.932 229.628 338.602 229.784 337.024 229.784C335.755 229.784 334.593 229.555 333.533 229.099C332.474 228.642 331.548 228.019 330.76 227.229C329.97 226.418 329.347 225.472 328.89 224.393C328.454 223.291 328.236 222.097 328.236 220.809C328.236 219.479 328.463 218.273 328.921 217.193C329.378 216.092 330.001 215.147 330.791 214.357C331.601 213.547 332.536 212.924 333.596 212.487C334.655 212.031 335.798 211.802 337.024 211.802C338.27 211.802 339.402 212.02 340.421 212.456C341.438 212.872 342.311 213.485 343.039 214.295C343.787 215.085 344.368 216.051 344.784 217.193C345.198 218.315 345.416 219.707 345.438 221.37H330.604C330.624 222.055 330.791 222.814 331.103 223.645C331.414 224.455 331.851 225.151 332.412 225.733C332.993 226.314 333.667 226.772 334.437 227.104C335.226 227.436 336.089 227.603 337.024 227.603ZM337.024 213.983C336.109 213.983 335.279 214.128 334.531 214.42C333.803 214.711 333.18 215.116 332.661 215.635C332.14 216.134 331.715 216.737 331.383 217.443C331.05 218.128 330.842 218.72 330.76 219.219H342.914C342.852 218.638 342.654 218.004 342.322 217.318C342.01 216.612 341.594 216.009 341.075 215.51C340.577 215.012 339.985 214.638 339.299 214.388C338.613 214.119 337.854 213.983 337.024 213.983ZM348.673 224.424C348.215 223.322 347.988 222.118 347.988 220.809C347.988 219.5 348.215 218.304 348.673 217.224C349.13 216.123 349.753 215.168 350.543 214.357C351.331 213.547 352.246 212.924 353.285 212.487C354.345 212.031 355.487 211.802 356.714 211.802C357.98 211.802 359.091 211.937 360.048 212.207C361.003 212.456 361.99 212.861 363.009 213.422L361.98 215.448C361.086 214.907 360.244 214.533 359.456 214.326C358.686 214.097 357.773 213.983 356.714 213.983C355.779 213.983 354.915 214.159 354.127 214.513C353.357 214.867 352.693 215.344 352.132 215.947C351.571 216.55 351.135 217.267 350.823 218.097C350.512 218.928 350.356 219.832 350.356 220.809C350.356 221.786 350.512 222.689 350.823 223.52C351.135 224.351 351.571 225.067 352.132 225.67C352.693 226.273 353.357 226.75 354.127 227.104C354.915 227.436 355.779 227.603 356.714 227.603C357.773 227.603 358.686 227.498 359.456 227.291C360.244 227.062 361.086 226.679 361.98 226.138L363.009 228.164C361.99 228.725 361.003 229.13 360.048 229.379C359.091 229.649 357.98 229.784 356.714 229.784C355.487 229.784 354.345 229.555 353.285 229.099C352.246 228.662 351.331 228.05 350.543 227.26C349.753 226.45 349.13 225.504 348.673 224.424ZM364.106 212.145H367.783V205.88H369.996V212.145H377.164V214.295H369.996V222.741C369.996 223.656 370.058 224.404 370.183 224.985C370.328 225.566 370.546 226.024 370.837 226.356C371.129 226.688 371.523 226.937 372.021 227.104C372.52 227.249 373.143 227.322 373.891 227.322H377.382V229.473H374.109C373.195 229.473 372.353 229.368 371.585 229.161C370.837 228.974 370.172 228.651 369.591 228.195C369.009 227.738 368.562 227.135 368.251 226.387C367.939 225.639 367.783 224.715 367.783 223.613V214.295H364.106V212.145ZM393.315 212.145H395.527V228.662C394.134 229.057 392.888 229.337 391.787 229.504C390.706 229.691 389.626 229.784 388.546 229.784C387.465 229.784 386.49 229.68 385.617 229.473C384.765 229.265 384.028 228.88 383.404 228.319C382.801 227.758 382.345 227.011 382.033 226.076C381.721 225.12 381.566 223.925 381.566 222.491V212.145H383.778V221.557C383.778 222.823 383.881 223.852 384.09 224.642C384.297 225.432 384.589 226.033 384.962 226.45C385.357 226.866 385.855 227.166 386.458 227.353C387.082 227.52 387.819 227.603 388.671 227.603C389.377 227.603 390.125 227.551 390.915 227.447C391.725 227.342 392.525 227.177 393.315 226.948V212.145ZM410.294 214.295H407.427C406.782 214.295 406.087 214.357 405.339 214.482C404.591 214.586 404.071 214.689 403.781 214.794V229.473H401.568V213.017C402.441 212.788 403.345 212.592 404.28 212.425C405.215 212.238 406.159 212.145 407.116 212.145H410.294V214.295ZM420.29 227.603C421.599 227.603 422.721 227.458 423.656 227.166C424.613 226.875 425.557 226.45 426.492 225.889L427.552 227.914C426.472 228.538 425.381 229.005 424.279 229.317C423.2 229.628 421.87 229.784 420.29 229.784C419.024 229.784 417.86 229.555 416.8 229.099C415.74 228.642 414.816 228.019 414.026 227.229C413.238 226.418 412.615 225.472 412.157 224.393C411.72 223.291 411.502 222.097 411.502 220.809C411.502 219.479 411.731 218.273 412.188 217.193C412.646 216.092 413.269 215.147 414.058 214.357C414.868 213.547 415.803 212.924 416.862 212.487C417.922 212.031 419.066 211.802 420.29 211.802C421.537 211.802 422.67 212.02 423.687 212.456C424.706 212.872 425.579 213.485 426.305 214.295C427.053 215.085 427.636 216.051 428.05 217.193C428.466 218.315 428.685 219.707 428.705 221.37H413.871C413.892 222.055 414.058 222.814 414.369 223.645C414.681 224.455 415.117 225.151 415.678 225.733C416.261 226.314 416.936 226.772 417.704 227.104C418.494 227.436 419.356 227.603 420.29 227.603ZM420.29 213.983C419.377 213.983 418.545 214.128 417.797 214.42C417.071 214.711 416.448 215.116 415.927 215.635C415.409 216.134 414.983 216.737 414.65 217.443C414.318 218.128 414.111 218.72 414.026 219.219H426.181C426.118 218.638 425.922 218.004 425.588 217.318C425.277 216.612 424.862 216.009 424.342 215.51C423.843 215.012 423.251 214.638 422.565 214.388C421.88 214.119 421.123 213.983 420.29 213.983Z" fill="white"/>
</svg>
